REM DIRINDEX 1\2,1\3,1\4,1\5
REM DIRNAME folder01,folder02,folder03,folder04,folder05
TITLE ""
FILE "P1Q_t_1302-1311.mp3" MP3
  TRACK 01 AUDIO
    TITLE "3:cjc005_4813"
    INDEX 01 00:00:00
  TRACK 02 AUDIO
    TITLE "0:"
    INDEX 01 00:01:03
  TRACK 03 AUDIO
    TITLE "4:cjc005_4814"
    INDEX 01 00:01:34
  TRACK 04 AUDIO
    TITLE "0:"
    INDEX 01 00:02:38
  TRACK 05 AUDIO
    TITLE "5:cjc005_4815"
    INDEX 01 00:02:61
  TRACK 06 AUDIO
    TITLE "0:"
    INDEX 01 00:06:71
  TRACK 07 AUDIO
    TITLE "3:cjc005_4816"
    INDEX 01 00:07:49
  TRACK 08 AUDIO
    TITLE "0:"
    INDEX 01 00:08:56
  TRACK 09 AUDIO
    TITLE "4:cjc005_4817"
    INDEX 01 00:09:14
  TRACK 10 AUDIO
    TITLE "0:"
    INDEX 01 00:10:27
  TRACK 11 AUDIO
    TITLE "5:cjc005_4818"
    INDEX 01 00:10:47
  TRACK 12 AUDIO
    TITLE "0:"
    INDEX 01 00:14:39
  TRACK 13 AUDIO
    TITLE "3:cjc005_4819"
    INDEX 01 00:15:19
  TRACK 14 AUDIO
    TITLE "0:"
    INDEX 01 00:16:38
  TRACK 15 AUDIO
    TITLE "4:cjc005_4820"
    INDEX 01 00:16:59
  TRACK 16 AUDIO
    TITLE "0:"
    INDEX 01 00:17:69
  TRACK 17 AUDIO
    TITLE "5:cjc005_4821"
    INDEX 01 00:18:17
  TRACK 18 AUDIO
    TITLE "0:"
    INDEX 01 00:22:66
  TRACK 19 AUDIO
    TITLE "3:cjc005_4822"
    INDEX 01 00:23:38
  TRACK 20 AUDIO
    TITLE "0:"
    INDEX 01 00:24:59
  TRACK 21 AUDIO
    TITLE "4:cjc005_4823"
    INDEX 01 00:25:09
  TRACK 22 AUDIO
    TITLE "0:"
    INDEX 01 00:26:20
  TRACK 23 AUDIO
    TITLE "5:cjc005_4824"
    INDEX 01 00:26:44
  TRACK 24 AUDIO
    TITLE "0:"
    INDEX 01 00:29:05
  TRACK 25 AUDIO
    TITLE "3:cjc005_4825"
    INDEX 01 00:29:60
  TRACK 26 AUDIO
    TITLE "0:"
    INDEX 01 00:30:69
  TRACK 27 AUDIO
    TITLE "4:cjc005_4826"
    INDEX 01 00:31:16
  TRACK 28 AUDIO
    TITLE "0:"
    INDEX 01 00:32:35
  TRACK 29 AUDIO
    TITLE "5:cjc005_4827"
    INDEX 01 00:32:54
  TRACK 30 AUDIO
    TITLE "0:"
    INDEX 01 00:36:23
  TRACK 31 AUDIO
    TITLE "3:cjc005_4828"
    INDEX 01 00:37:01
  TRACK 32 AUDIO
    TITLE "0:"
    INDEX 01 00:38:14
  TRACK 33 AUDIO
    TITLE "4:cjc005_4829"
    INDEX 01 00:38:39
  TRACK 34 AUDIO
    TITLE "0:"
    INDEX 01 00:39:51
  TRACK 35 AUDIO
    TITLE "5:cjc005_4830"
    INDEX 01 00:39:74
  TRACK 36 AUDIO
    TITLE "0:"
    INDEX 01 00:45:33
  TRACK 37 AUDIO
    TITLE "3:cjc005_4831"
    INDEX 01 00:46:09
  TRACK 38 AUDIO
    TITLE "0:"
    INDEX 01 00:47:27
  TRACK 39 AUDIO
    TITLE "4:cjc005_4832"
    INDEX 01 00:47:50
  TRACK 40 AUDIO
    TITLE "0:"
    INDEX 01 00:48:53
  TRACK 41 AUDIO
    TITLE "5:cjc005_4833"
    INDEX 01 00:49:08
  TRACK 42 AUDIO
    TITLE "0:"
    INDEX 01 00:52:30
  TRACK 43 AUDIO
    TITLE "3:cjc005_4834"
    INDEX 01 00:53:08
  TRACK 44 AUDIO
    TITLE "0:"
    INDEX 01 00:54:27
  TRACK 45 AUDIO
    TITLE "4:cjc005_4835"
    INDEX 01 00:54:52
  TRACK 46 AUDIO
    TITLE "0:"
    INDEX 01 00:55:65
  TRACK 47 AUDIO
    TITLE "5:cjc005_4836"
    INDEX 01 00:56:08
  TRACK 48 AUDIO
    TITLE "0:"
    INDEX 01 01:00:08
  TRACK 49 AUDIO
    TITLE "3:cjc005_4837"
    INDEX 01 01:00:51
  TRACK 50 AUDIO
    TITLE "0:"
    INDEX 01 01:01:62
  TRACK 51 AUDIO
    TITLE "4:cjc005_4838"
    INDEX 01 01:02:14
  TRACK 52 AUDIO
    TITLE "0:"
    INDEX 01 01:03:35
  TRACK 53 AUDIO
    TITLE "5:cjc005_4839"
    INDEX 01 01:03:61
  TRACK 54 AUDIO
    TITLE "0:"
    INDEX 01 01:08:05
  TRACK 55 AUDIO
    TITLE "3:cjc005_4840"
    INDEX 01 01:08:56
  TRACK 56 AUDIO
    TITLE "0:"
    INDEX 01 01:10:02
  TRACK 57 AUDIO
    TITLE "4:cjc005_4841"
    INDEX 01 01:10:24
  TRACK 58 AUDIO
    TITLE "0:"
    INDEX 01 01:11:23
  TRACK 59 AUDIO
    TITLE "5:cjc005_4842"
    INDEX 01 01:11:47
  TRACK 60 AUDIO
    TITLE "0:"
    INDEX 01 01:15:62
